# xmcd
#
# Track frame offsets:
# 150
# 28406
# 40412
# 51859
# 64073
# 77709
# 90762
# 101917
# 113667
# 124225
#
# Disc length: 1813 seconds
#
#
# Revision: 0
# Processed by: cddbd v1.5.1PL2 Copyright (c) Steve Scherf et al.
# Submitted via: FreeRIP 2.945 
#
DISCID=8207130a
DTITLE=Ray Charles - Mess Around
DYEAR=2005
DGENRE=Soul
TTITLE0=I've Got A Woman (Live)
TTITLE1=Mess Around
TTITLE2=She's On The Ball
TTITLE3=Tell Me How Do You Feel
TTITLE4=I'm Going Down To The River
TTITLE5=Baby, Won't You Please Come Home
TTITLE6=Let's Have A Ball
TTITLE7=C.C. Rider
TTITLE8=Sitting On Top Of The World
TTITLE9=How Long Blues
EXTD=Original American Classics CD set.  Disc #3.
EXTT0=
EXTT1=
EXTT2=
EXTT3=
EXTT4=
EXTT5=
EXTT6=
EXTT7=
EXTT8=
EXTT9=
PLAYORDER=
